<svg width="544" height="354" viewBox="0 0 272 177" fill="none" xmlns="http://www.w3.org/2000/svg">
<rect width="272" height="177" rx="8" fill="#FFF065"/>
<rect x="9" y="8" width="254" height="160" rx="8" fill="#FBA6AB"/>
<path d="M84.82 68.3C83.54 68.3 82.26 68.15 80.98 67.85C79.72 67.53 78.56 66.97 77.5 66.17C76.46 65.37 75.62 64.26 74.98 62.84C74.34 61.42 74.02 59.6 74.02 57.38C74.02 55.16 74.34 53.34 74.98 51.92C75.62 50.5 76.46 49.39 77.5 48.59C78.56 47.79 79.72 47.24 80.98 46.94C82.26 46.62 83.54 46.46 84.82 46.46C86.1 46.46 87.37 46.62 88.63 46.94C89.91 47.26 91.07 47.82 92.11 48.62C93.17 49.42 94.02 50.53 94.66 51.95C95.3 53.37 95.62 55.18 95.62 57.38C95.62 59.58 95.3 61.39 94.66 62.81C94.02 64.23 93.17 65.34 92.11 66.14C91.07 66.94 89.91 67.5 88.63 67.82C87.37 68.14 86.1 68.3 84.82 68.3ZM84.82 62.3C86.12 62.3 87.1 61.91 87.76 61.13C88.42 60.33 88.75 59.08 88.75 57.38C88.75 55.7 88.42 54.46 87.76 53.66C87.1 52.86 86.12 52.46 84.82 52.46C82.22 52.46 80.92 54.1 80.92 57.38C80.92 59.06 81.24 60.3 81.88 61.1C82.54 61.9 83.52 62.3 84.82 62.3ZM99.0426 68V51.59L98.4426 48.59L99.0426 46.79H105.073L111.133 54.35L112.573 56.84H112.873V46.79H119.803V48.59L119.503 51.59V68H113.533L106.003 57.74H105.703V59.54L106.003 68H99.0426ZM124.004 68L123.404 66.2L124.004 63.2V46.76H130.604V58.19L130.304 62.3H130.904L136.274 62L138.404 61.7L141.044 66.08L139.574 68H124.004ZM143.157 68V51.56L142.857 48.56L143.157 46.76H149.787V68H143.157ZM153.974 68V51.59L153.374 48.59L153.974 46.79H160.004L166.064 54.35L167.504 56.84H167.804V46.79H174.734V48.59L174.434 51.59V68H168.464L160.934 57.74H160.634V59.54L160.934 68H153.974ZM178.935 68L178.335 66.2L178.935 63.2V46.76H194.385L195.885 47.66L193.905 52.76L191.205 52.46H185.595V54.86H193.005V59.81H188.865L185.595 59.51V62.3H193.905L197.475 66.08L195.705 68H178.935Z" fill="#FFF065"/>
<path d="M48.9766 98.0234C51.0339 98.4141 52.8698 98.8958 54.4844 99.4688C56.125 100.042 57.5052 100.654 58.625 101.305C59.7448 101.93 60.7083 102.659 61.5156 103.492C62.3229 104.326 62.9479 105.133 63.3906 105.914C63.8594 106.695 64.224 107.594 64.4844 108.609C64.7448 109.625 64.9141 110.562 64.9922 111.422C65.0703 112.255 65.1094 113.232 65.1094 114.352C65.1094 116.435 64.7188 118.427 63.9375 120.328C63.1562 122.229 62.1797 123.805 61.0078 125.055C59.862 126.279 58.6641 127.255 57.4141 127.984C56.1641 128.714 55.0312 129.078 54.0156 129.078C53.4688 129.078 53.1953 128.818 53.1953 128.297C53.1953 127.958 53.4036 127.581 53.8203 127.164C55.1484 125.888 56.125 124.339 56.75 122.516C57.375 120.693 57.6875 119.039 57.6875 117.555C57.6875 116.669 57.6745 115.979 57.6484 115.484C57.6224 114.99 57.5312 114.312 57.375 113.453C57.2448 112.594 57.0365 111.904 56.75 111.383C56.4896 110.836 56.0859 110.224 55.5391 109.547C54.9922 108.844 54.3281 108.271 53.5469 107.828C52.7656 107.359 51.763 106.93 50.5391 106.539C49.3411 106.122 47.9609 105.797 46.3984 105.562C44.4193 105.276 42.6354 104.898 41.0469 104.43C39.4844 103.935 38.1823 103.414 37.1406 102.867C36.125 102.32 35.2396 101.682 34.4844 100.953C33.7552 100.224 33.1953 99.5469 32.8047 98.9219C32.4141 98.2708 32.1146 97.5417 31.9062 96.7344C31.6979 95.9271 31.5677 95.263 31.5156 94.7422C31.4635 94.1953 31.4375 93.5833 31.4375 92.9062C31.4375 92.125 31.5547 91.3828 31.7891 90.6797C32.1536 89.5599 32.987 88.4922 34.2891 87.4766C35.5911 86.4609 36.724 85.9531 37.6875 85.9531C38.1562 85.9531 38.5078 86.0573 38.7422 86.2656C39.0026 86.4479 39.1328 86.8516 39.1328 87.4766C39.1328 89.4557 39.25 91.0182 39.4844 92.1641C39.7448 93.3099 40.2786 94.2734 41.0859 95.0547C41.8932 95.8359 42.8698 96.4219 44.0156 96.8125C45.1615 97.2031 46.8151 97.6068 48.9766 98.0234ZM42.6094 130.211C40.6302 130.211 38.8854 129.951 37.375 129.43C35.8906 128.935 34.263 127.88 32.4922 126.266C31.6328 125.484 31.2031 124.664 31.2031 123.805C31.2031 123.102 31.4896 122.464 32.0625 121.891C33.7812 120.172 35.3307 119.312 36.7109 119.312C37.5964 119.312 38.5859 119.768 39.6797 120.68C41.1901 121.982 42.4401 122.828 43.4297 123.219C44.4453 123.609 45.6302 123.805 46.9844 123.805C48.1302 123.805 49.1849 123.583 50.1484 123.141C51.138 122.698 51.724 122.477 51.9062 122.477C52.5573 122.477 52.8828 122.893 52.8828 123.727C52.8828 124.143 52.7135 124.677 52.375 125.328C52.0365 125.979 51.5026 126.695 50.7734 127.477C50.0703 128.232 48.9896 128.87 47.5312 129.391C46.099 129.938 44.4583 130.211 42.6094 130.211ZM62.0625 77.6328C62.0625 78.6484 61.3854 79.6641 60.0312 80.6797C58.7031 81.6953 57.5443 82.2031 56.5547 82.2031C55.9297 82.2031 55.0833 81.9688 54.0156 81.5C52.9479 81.0312 51.737 80.5625 50.3828 80.0938C49.0547 79.625 47.7526 79.3906 46.4766 79.3906C44.2891 79.3906 42.2448 79.8073 40.3438 80.6406C38.4688 81.4479 36.4635 82.737 34.3281 84.5078C32.9219 85.6797 32.0365 86.2656 31.6719 86.2656C31.099 86.2656 30.8125 85.9531 30.8125 85.3281C30.8125 84.9115 31.0599 84.2734 31.5547 83.4141C32.0495 82.5547 32.5182 81.8516 32.9609 81.3047C37.5443 75.7578 43.625 72.9844 51.2031 72.9844C52.6354 72.9844 54.1719 73.1667 55.8125 73.5312C57.4531 73.8698 58.8984 74.4167 60.1484 75.1719C61.4245 75.901 62.0625 76.7214 62.0625 77.6328ZM102.805 80.6016H70.8125C69.6927 80.6016 69.1328 80.1979 69.1328 79.3906C69.1328 79.026 69.3932 78.362 69.9141 77.3984C70.4349 76.4349 71.0469 75.6406 71.75 75.0156C72.349 74.4688 73.3125 74.1953 74.6406 74.1953H106.633C107.753 74.1953 108.312 74.599 108.312 75.4062C108.312 75.7708 108.052 76.4349 107.531 77.3984C107.01 78.362 106.398 79.1562 105.695 79.7812C105.096 80.3281 104.133 80.6016 102.805 80.6016ZM84.0938 127.711L84.0547 85.2891C84.0547 84.3516 84.3672 83.7396 84.9922 83.4531C85.6432 83.1406 86.6328 82.9844 87.9609 82.9844C89.4193 82.9844 90.4349 83.1406 91.0078 83.4531C91.6068 83.7396 91.9062 84.3516 91.9062 85.2891V123.57C91.9062 124.69 91.6458 125.562 91.125 126.188C90.4479 126.995 89.5104 127.737 88.3125 128.414C87.1406 129.065 86.1901 129.391 85.4609 129.391C84.5495 129.391 84.0938 128.831 84.0938 127.711ZM156.672 99.8984C156.672 103.414 156.49 106.552 156.125 109.312C155.76 112.073 155.227 114.534 154.523 116.695C153.846 118.831 153 120.693 151.984 122.281C150.995 123.844 149.849 125.185 148.547 126.305C146.984 127.685 145.643 128.375 144.523 128.375C143.977 128.375 143.703 128.049 143.703 127.398C143.703 127.19 143.898 126.839 144.289 126.344C144.68 125.823 145.057 125.211 145.422 124.508C147.505 120.576 148.547 114.612 148.547 106.617C148.547 105.185 148.547 103.518 148.547 101.617C148.547 99.7161 148.417 97.763 148.156 95.7578C147.922 93.7266 147.505 91.7344 146.906 89.7812C146.307 87.8281 145.396 86.0833 144.172 84.5469C142.948 83.0104 141.346 81.7734 139.367 80.8359C137.414 79.8724 134.966 79.3906 132.023 79.3906C129.732 79.3906 127.492 79.8203 125.305 80.6797C123.117 81.5391 120.943 82.8151 118.781 84.5078L117.531 85.4844C117.297 85.6927 117.036 85.875 116.75 86.0312C116.464 86.1875 116.255 86.2656 116.125 86.2656C115.578 86.2656 115.305 86.0052 115.305 85.4844C115.305 84.6771 115.865 83.5573 116.984 82.125C119.328 79.1302 122.089 76.8646 125.266 75.3281C128.443 73.7656 131.789 72.9844 135.305 72.9844C138.846 72.9844 141.945 73.5182 144.602 74.5859C147.284 75.6536 149.51 77.2943 151.281 79.5078C153.078 81.6953 154.419 84.4818 155.305 87.8672C156.216 91.2526 156.672 95.263 156.672 99.8984ZM123.234 87.6328C123.234 87.8672 123.104 88.6875 122.844 90.0938C122.583 91.474 122.323 93.3099 122.062 95.6016C121.802 97.8932 121.672 100.25 121.672 102.672C121.672 104.547 121.724 106.253 121.828 107.789C121.958 109.326 122.167 110.94 122.453 112.633C122.74 114.326 123.182 115.81 123.781 117.086C124.38 118.336 125.122 119.495 126.008 120.562C126.893 121.604 128.026 122.411 129.406 122.984C130.786 123.531 132.362 123.805 134.133 123.805C135.695 123.805 137.076 123.648 138.273 123.336C139.471 122.997 140.396 122.672 141.047 122.359C141.698 122.047 142.141 121.891 142.375 121.891C142.948 121.891 143.234 122.203 143.234 122.828C143.234 123.479 142.987 124.208 142.492 125.016C141.997 125.823 141.307 126.63 140.422 127.438C139.536 128.219 138.339 128.87 136.828 129.391C135.318 129.938 133.69 130.211 131.945 130.211C128.43 130.211 125.461 129.638 123.039 128.492C120.617 127.32 118.716 125.562 117.336 123.219C115.982 120.875 115.005 118.167 114.406 115.094C113.833 112.021 113.547 108.362 113.547 104.117C113.547 97.6849 114.198 93.2318 115.5 90.7578C116.229 89.4036 117.271 88.3099 118.625 87.4766C119.979 86.6172 121.112 86.1875 122.023 86.1875C122.831 86.1875 123.234 86.6693 123.234 87.6328ZM191.516 92.8672C191.516 90.9141 191.242 89.2083 190.695 87.75C190.174 86.2656 189.471 85.0807 188.586 84.1953C187.727 83.2839 186.646 82.5547 185.344 82.0078C184.042 81.4349 182.701 81.0443 181.32 80.8359C179.966 80.6276 178.443 80.5234 176.75 80.5234H167.453C167.115 80.5234 166.841 80.5104 166.633 80.4844C166.451 80.4583 166.281 80.3802 166.125 80.25C165.995 80.0938 165.93 79.8854 165.93 79.625C165.93 78.5052 166.672 77.3333 168.156 76.1094C169.641 74.8854 171.138 74.2474 172.648 74.1953L180.07 74.0781C181.138 74.0781 182.154 74.1172 183.117 74.1953C184.081 74.2474 185.253 74.4167 186.633 74.7031C188.013 74.9635 189.276 75.3151 190.422 75.7578C191.568 76.2005 192.74 76.8516 193.938 77.7109C195.161 78.5443 196.177 79.5339 196.984 80.6797C197.818 81.8255 198.495 83.2708 199.016 85.0156C199.562 86.7604 199.836 88.7005 199.836 90.8359C199.836 96.4089 197.062 101.109 191.516 104.938C190.708 105.51 190.305 106.109 190.305 106.734C190.305 107.203 190.526 107.776 190.969 108.453L200.109 123.141C200.682 124.078 200.969 124.885 200.969 125.562C200.969 126.604 200.279 127.529 198.898 128.336C197.779 129.039 196.75 129.391 195.812 129.391C194.953 129.391 194.198 128.831 193.547 127.711L182.727 108.766C182.414 108.297 182.258 107.841 182.258 107.398C182.258 106.669 182.753 106.018 183.742 105.445C186.294 104.013 188.221 102.203 189.523 100.016C190.852 97.8281 191.516 95.4453 191.516 92.8672ZM165.93 103.844V85.0938C165.93 84.1562 166.242 83.5443 166.867 83.2578C167.518 82.9453 168.508 82.7891 169.836 82.7891C171.294 82.7891 172.31 82.9453 172.883 83.2578C173.482 83.5443 173.781 84.1562 173.781 85.0938V99.3125C173.781 100.432 174.276 100.992 175.266 100.992H182.102C183.221 100.992 183.781 101.318 183.781 101.969C183.781 102.594 183.169 103.323 181.945 104.156C180.721 104.964 179.211 105.641 177.414 106.188C176.32 106.526 173.612 106.695 169.289 106.695C167.961 106.695 167.062 106.461 166.594 105.992C166.151 105.523 165.93 104.807 165.93 103.844ZM173.781 111.461V123.57C173.781 124.846 173.508 125.797 172.961 126.422C172.31 127.203 171.385 127.893 170.188 128.492C169.016 129.091 168.052 129.391 167.297 129.391C166.385 129.391 165.93 128.831 165.93 127.711V111.461C165.93 110.523 166.255 109.885 166.906 109.547C167.583 109.208 168.586 109.039 169.914 109.039C171.346 109.039 172.349 109.208 172.922 109.547C173.495 109.859 173.781 110.497 173.781 111.461ZM216.984 74.1953H238.039C239.159 74.1953 239.719 74.599 239.719 75.4062C239.719 75.7708 239.458 76.4349 238.938 77.3984C238.417 78.3359 237.792 79.1302 237.062 79.7812C236.464 80.3281 235.513 80.6016 234.211 80.6016H211.789C211.398 80.6016 211.112 80.5885 210.93 80.5625C210.747 80.5104 210.578 80.3932 210.422 80.2109C210.292 80.0286 210.227 79.7682 210.227 79.4297C210.227 78.4661 210.982 77.3594 212.492 76.1094C214.029 74.8333 215.526 74.1953 216.984 74.1953ZM210.266 127.32V108.062C210.266 107.125 210.578 106.513 211.203 106.227C211.854 105.914 212.857 105.758 214.211 105.758C215.669 105.758 216.685 105.914 217.258 106.227C217.831 106.513 218.117 107.125 218.117 108.062V120.992C218.117 122.06 218.651 122.594 219.719 122.594H238.82C239.94 122.594 240.5 122.997 240.5 123.805C240.5 124.169 240.24 124.846 239.719 125.836C239.198 126.799 238.586 127.594 237.883 128.219C237.284 128.74 236.32 129 234.992 129H211.633C210.721 129 210.266 128.44 210.266 127.32ZM210.266 101.812V85.2891C210.266 84.3516 210.578 83.7266 211.203 83.4141C211.854 83.1016 212.857 82.9453 214.211 82.9453C215.669 82.9453 216.685 83.1016 217.258 83.4141C217.831 83.7005 218.117 84.3255 218.117 85.2891V95.4062C218.117 96.474 218.651 97.0078 219.719 97.0078H235.617C236.737 97.0078 237.297 97.4115 237.297 98.2188C237.297 98.5833 237.036 99.2474 236.516 100.211C235.995 101.148 235.383 101.943 234.68 102.594C234.081 103.141 233.117 103.414 231.789 103.414H211.867C210.799 103.414 210.266 102.88 210.266 101.812Z" fill="#FFF065"/>
</svg>
