<svg width="544" height="354" viewBox="0 0 272 177" fill="none" xmlns="http://www.w3.org/2000/svg">
<rect width="272" height="177" rx="8" fill="white"/>
<path d="M27.88 59V39.308L27.16 35.708L27.88 33.548H35.116L42.388 42.62L44.116 45.608H44.476V33.548H52.792V35.708L52.432 39.308V59H45.268L36.232 46.688H35.872V48.848L36.232 59H27.88ZM65.2491 59.36C62.3211 59.36 59.9931 58.664 58.2651 57.272C56.5371 55.88 55.6731 53.624 55.6731 50.504C55.6731 47.36 56.5371 45.104 58.2651 43.736C59.9931 42.344 62.3211 41.648 65.2491 41.648C68.2731 41.648 70.6131 42.344 72.2691 43.736C73.9251 45.104 74.7531 47.36 74.7531 50.504C74.7531 53.624 73.9251 55.88 72.2691 57.272C70.6131 58.664 68.2731 59.36 65.2491 59.36ZM65.2491 53.6C65.7051 53.6 66.0771 53.42 66.3651 53.06C66.6531 52.676 66.7971 51.824 66.7971 50.504C66.7971 49.16 66.6531 48.308 66.3651 47.948C66.1011 47.588 65.7291 47.408 65.2491 47.408C64.7931 47.408 64.4091 47.588 64.0971 47.948C63.7851 48.308 63.6291 49.16 63.6291 50.504C63.6291 51.824 63.7851 52.676 64.0971 53.06C64.4091 53.42 64.7931 53.6 65.2491 53.6ZM84.9524 59.36C82.8404 59.36 81.2924 58.928 80.3084 58.064C79.3244 57.2 78.8324 55.94 78.8324 54.284V47.516H75.8444V43.016L78.4724 41.252L81.0284 36.788H86.7164V42.008H92.1164V47.768H86.7164V53.312L92.1164 53.276V58.28C92.1164 58.28 91.9004 58.34 91.4684 58.46C91.0364 58.556 90.4604 58.676 89.7404 58.82C89.0444 58.964 88.2764 59.084 87.4364 59.18C86.5964 59.3 85.7684 59.36 84.9524 59.36ZM103.823 59.36C101.975 59.36 100.295 59.096 98.7831 58.568C97.2951 58.016 96.1071 57.104 95.2191 55.832C94.3551 54.536 93.9231 52.76 93.9231 50.504C93.9231 48.92 94.1871 47.564 94.7151 46.436C95.2671 45.308 95.9991 44.396 96.9111 43.7C97.8231 42.98 98.8431 42.464 99.9711 42.152C101.099 41.816 102.263 41.648 103.463 41.648C104.975 41.648 106.235 41.744 107.243 41.936C108.275 42.128 109.103 42.344 109.727 42.584C110.351 42.824 110.831 43.04 111.167 43.232L112.967 48.956L112.247 51.188H101.807C101.903 51.86 102.251 52.436 102.851 52.916C103.451 53.372 104.495 53.6 105.983 53.6C107.399 53.6 108.575 53.444 109.511 53.132C110.447 52.82 111.119 52.58 111.527 52.412V57.956C111.047 58.22 110.387 58.46 109.547 58.676C108.707 58.892 107.783 59.06 106.775 59.18C105.791 59.3 104.807 59.36 103.823 59.36ZM101.699 48.848L105.371 48.164L105.047 47.012C104.711 46.82 104.303 46.724 103.823 46.724C103.031 46.724 102.467 46.94 102.131 47.372C101.819 47.804 101.675 48.296 101.699 48.848ZM123.028 59.36C120.988 59.36 119.32 59.192 118.024 58.856C116.728 58.496 115.684 58.112 114.892 57.704V51.62C115.9 52.22 117.064 52.7 118.384 53.06C119.704 53.42 120.892 53.6 121.948 53.6C122.332 53.6 122.596 53.552 122.74 53.456C122.884 53.36 122.956 53.216 122.956 53.024C122.956 52.832 122.716 52.628 122.236 52.412C121.78 52.172 120.988 51.884 119.86 51.548C118.972 51.26 118.12 50.948 117.304 50.612C116.488 50.276 115.828 49.832 115.324 49.28C114.82 48.728 114.568 47.996 114.568 47.084C114.568 45.692 114.916 44.6 115.612 43.808C116.332 43.016 117.316 42.464 118.564 42.152C119.836 41.816 121.276 41.648 122.884 41.648C123.796 41.648 124.708 41.696 125.62 41.792C126.556 41.888 127.192 41.96 127.528 42.008L130.876 43.808L129.256 48.74L123.64 47.372C122.872 47.372 122.488 47.552 122.488 47.912C122.488 48.32 123.04 48.668 124.144 48.956C125.272 49.268 126.376 49.604 127.456 49.964C128.536 50.324 129.424 50.816 130.12 51.44C130.816 52.04 131.164 52.88 131.164 53.96C131.164 55.784 130.444 57.14 129.004 58.028C127.564 58.916 125.572 59.36 123.028 59.36ZM141.27 59L142.998 52.916V48.344L145.662 47.264L150.702 33.548H161.538L167.694 49.676L170.466 54.788V59H162.654L160.854 53.636H151.098L149.55 59H141.27ZM153.474 47.336H158.874L156.498 40.172H155.742L153.474 47.336ZM172.988 67.748V48.128L172.268 44.168L173.384 41.972H180.188V43.52L180.548 43.7C180.548 43.7 180.704 43.52 181.016 43.16C181.328 42.8 181.796 42.452 182.42 42.116C183.068 41.756 183.896 41.576 184.904 41.576C187.04 41.576 188.708 42.26 189.908 43.628C191.132 44.996 191.744 47.156 191.744 50.108C191.744 52.316 191.432 54.104 190.808 55.472C190.208 56.816 189.392 57.788 188.36 58.388C187.328 58.988 186.176 59.288 184.904 59.288C183.416 59.288 182.372 59.156 181.772 58.892C181.196 58.604 180.908 58.46 180.908 58.46V67.748H172.988ZM181.844 53.204C182.42 53.204 182.888 52.988 183.248 52.556C183.632 52.124 183.824 51.416 183.824 50.432C183.824 49.592 183.62 48.956 183.212 48.524C182.828 48.068 182.18 47.84 181.268 47.84L180.908 48.2V52.736C180.908 52.736 180.98 52.82 181.124 52.988C181.292 53.132 181.532 53.204 181.844 53.204ZM194.609 67.748V48.128L193.889 44.168L195.005 41.972H201.809V43.52L202.169 43.7C202.169 43.7 202.325 43.52 202.637 43.16C202.949 42.8 203.417 42.452 204.041 42.116C204.689 41.756 205.517 41.576 206.525 41.576C208.661 41.576 210.329 42.26 211.529 43.628C212.753 44.996 213.365 47.156 213.365 50.108C213.365 52.316 213.053 54.104 212.429 55.472C211.829 56.816 211.013 57.788 209.981 58.388C208.949 58.988 207.797 59.288 206.525 59.288C205.037 59.288 203.993 59.156 203.393 58.892C202.817 58.604 202.529 58.46 202.529 58.46V67.748H194.609ZM203.465 53.204C204.041 53.204 204.509 52.988 204.869 52.556C205.253 52.124 205.445 51.416 205.445 50.432C205.445 49.592 205.241 48.956 204.833 48.524C204.449 48.068 203.801 47.84 202.889 47.84L202.529 48.2V52.736C202.529 52.736 202.601 52.82 202.745 52.988C202.913 53.132 203.153 53.204 203.465 53.204Z" fill="#CDB8FF"/>
<rect x="25" y="76" width="160" height="12" rx="6" fill="#FFF065"/>
<rect x="25" y="104" width="218" height="12" rx="6" fill="#FFF065"/>
<rect x="25" y="129" width="100" height="12" rx="6" fill="#FFF065"/>
</svg>
