<svg width="544" height="354" viewBox="0 0 272 177" fill="none" xmlns="http://www.w3.org/2000/svg">
<rect width="272" height="177" rx="8" fill="#FFF065"/>
<rect x="180" y="120" width="19" height="4" fill="#FBA6AB"/>
<rect x="56" y="120" width="99" height="4" fill="#FBA6AB"/>
<path d="M88.9443 79.1548C91.3239 79.8188 93.3438 80.5798 95.0039 81.4375C96.6917 82.2952 98.1029 83.1945 99.2373 84.1353C100.399 85.0483 101.312 85.9891 101.977 86.9575C102.641 87.9259 103.153 88.8529 103.512 89.7383C103.872 90.6237 104.093 91.4538 104.176 92.2285C104.287 92.9756 104.342 93.612 104.342 94.1377C104.342 96.0745 103.969 97.8039 103.222 99.3257C102.502 100.847 101.52 102.189 100.275 103.352C99.0298 104.514 97.5771 105.496 95.917 106.298C94.2845 107.101 92.569 107.751 90.7705 108.249C88.972 108.775 87.132 109.148 85.2505 109.37C83.369 109.619 81.5843 109.743 79.8965 109.743C77.1572 109.743 74.3211 109.466 71.3882 108.913C68.4829 108.36 65.5361 107.46 62.5479 106.215C61.8838 105.939 61.5518 105.454 61.5518 104.763C61.5518 104.292 61.7178 103.919 62.0498 103.642C62.3818 103.338 62.7415 103.186 63.1289 103.186C63.3226 103.186 63.5301 103.227 63.7515 103.31C66.3247 104.389 68.9671 105.205 71.6787 105.759C74.3903 106.312 77.1157 106.589 79.855 106.589C83.5903 106.589 86.8 106.229 89.4839 105.51C92.1678 104.79 94.3675 103.85 96.083 102.688C97.8262 101.498 99.1128 100.17 99.9429 98.7031C100.773 97.209 101.188 95.701 101.188 94.1792C101.188 92.4914 100.718 90.9281 99.7769 89.4893C98.8638 88.0505 97.5495 86.7638 95.834 85.6294C94.1462 84.495 92.1125 83.5265 89.7329 82.7241C87.3534 81.9217 84.7109 81.3268 81.8057 80.9395C79.8965 81.2715 78.0426 81.5067 76.2441 81.645C74.4456 81.7834 72.7855 81.8525 71.2637 81.8525H70.3091C70.1154 81.8525 69.9355 81.8387 69.7695 81.811C67.7773 86.5978 65.3978 90.7344 62.6309 94.2207C59.8916 97.707 56.9587 100.598 53.832 102.895C50.7331 105.164 47.5373 106.852 44.2446 107.958C40.9797 109.038 37.8392 109.577 34.8232 109.577C31.6966 109.577 28.819 109.134 26.1904 108.249C23.5895 107.391 21.3483 106.16 19.4668 104.555C17.5853 102.95 16.1188 101.014 15.0674 98.7446C14.016 96.4481 13.4902 93.8887 13.4902 91.0664C13.4902 88.1335 14.0575 85.1037 15.1919 81.9771C16.354 78.8228 18.0695 75.627 20.3384 72.3896C22.4966 69.346 24.89 66.6206 27.5186 64.2134C30.1471 61.7785 32.9002 59.6479 35.7778 57.8218C38.6831 55.9956 41.6714 54.4323 44.7427 53.1318C47.814 51.8314 50.8576 50.7661 53.8735 49.936C56.9172 49.106 59.8778 48.5111 62.7554 48.1514C65.6606 47.764 68.3861 47.5703 70.9316 47.5703C73.0068 47.5703 74.9852 47.6395 76.8667 47.7778C78.7482 47.9162 80.5467 48.1237 82.2622 48.4004C83.2583 47.2936 84.0607 46.505 84.6694 46.0347C85.2782 45.5366 85.624 45.2599 85.707 45.2046C86.0391 45.0386 86.3296 44.9556 86.5786 44.9556C86.966 44.9556 87.3118 45.0662 87.6162 45.2876C87.9206 45.509 88.0728 45.8271 88.0728 46.2422C88.0728 46.7956 87.8791 47.266 87.4917 47.6533C87.1043 48.013 86.5786 48.5111 85.9146 49.1475C90.978 50.3926 94.8517 52.2741 97.5356 54.792C100.22 57.2822 101.562 60.3674 101.562 64.0474C101.562 66.0672 101.229 67.8796 100.565 69.4844C99.9014 71.0892 98.9883 72.5003 97.8262 73.7178C96.6917 74.9352 95.3498 76.0005 93.8003 76.9136C92.2785 77.799 90.6598 78.5461 88.9443 79.1548ZM81.8472 77.7852C83.0646 77.5638 84.3097 77.2733 85.5825 76.9136C86.883 76.5539 88.1419 76.125 89.3594 75.627C90.6045 75.1012 91.7804 74.4925 92.8872 73.8008C93.994 73.0814 94.9486 72.2513 95.751 71.3105C96.5811 70.3421 97.2313 69.263 97.7017 68.0732C98.1997 66.8835 98.4487 65.5277 98.4487 64.0059C98.4487 60.9069 97.1621 58.3475 94.5889 56.3276C92.0156 54.3078 88.3218 52.8136 83.5073 51.8452C82.1239 53.5607 80.8234 55.4561 79.606 57.5312C78.3885 59.6064 77.2679 61.7646 76.2441 64.0059C75.2204 66.2194 74.2935 68.4744 73.4634 70.771C72.661 73.0399 71.9969 75.2396 71.4712 77.3701C72.0246 77.3424 72.5365 77.3286 73.0068 77.3286C73.4772 77.3286 73.8784 77.3286 74.2104 77.3286C75.2896 77.3286 76.4655 77.3701 77.7383 77.4531C79.0111 77.5085 80.3807 77.6191 81.8472 77.7852ZM79.9795 51.2642C78.5684 51.0705 77.1157 50.9321 75.6216 50.8491C74.1274 50.7661 72.5641 50.7246 70.9316 50.7246C68.4967 50.7246 65.9097 50.9045 63.1704 51.2642C60.4312 51.6239 57.6227 52.1911 54.7451 52.9658C51.8675 53.7406 48.9622 54.7505 46.0293 55.9956C43.124 57.2131 40.2879 58.6934 37.521 60.4365C34.7817 62.152 32.167 64.158 29.6768 66.4546C27.1865 68.7511 24.9176 71.3382 22.8701 74.2158C20.7949 77.1488 19.2316 80.0402 18.1802 82.8901C17.1287 85.7401 16.603 88.4517 16.603 91.0249C16.603 93.4321 17.0319 95.5903 17.8896 97.4995C18.7751 99.4087 20.0202 101.027 21.625 102.355C23.2298 103.656 25.1528 104.666 27.394 105.385C29.6353 106.077 32.1117 106.423 34.8232 106.423C37.5348 106.423 40.3571 105.939 43.29 104.97C46.223 103.974 49.0868 102.466 51.8813 100.446C54.6759 98.3988 57.3322 95.8255 59.8501 92.7266C62.368 89.5999 64.5677 85.8923 66.4492 81.6035C65.9512 81.6035 65.4393 81.4652 64.9136 81.1885C64.3879 80.8841 64.125 80.4137 64.125 79.7773C64.125 79.1133 64.4432 78.6429 65.0796 78.3662C65.716 78.0618 66.7121 77.8128 68.0679 77.6191C68.8149 75.3503 69.5758 73.0814 70.3506 70.8125C71.1253 68.5436 71.9831 66.3024 72.9238 64.0889C73.8646 61.8753 74.9022 59.7033 76.0366 57.5728C77.1711 55.4146 78.4854 53.3117 79.9795 51.2642ZM134.142 96.5034C133.838 97.1398 133.45 97.9007 132.98 98.7861C132.537 99.6439 132.025 100.543 131.444 101.484C130.863 102.425 130.213 103.365 129.494 104.306C128.774 105.219 127.986 106.049 127.128 106.796C126.298 107.516 125.399 108.097 124.43 108.54C123.489 109.01 122.479 109.245 121.4 109.245C119.74 109.245 118.315 108.733 117.125 107.709C115.936 106.686 114.926 105.344 114.096 103.684C113.266 102.023 112.588 100.142 112.062 98.0391C111.564 95.9085 111.177 93.7503 110.9 91.5645C110.623 89.3509 110.43 87.2065 110.319 85.1313C110.236 83.0562 110.194 81.2161 110.194 79.6113C110.194 77.2871 110.264 74.8799 110.402 72.3896C110.568 69.8994 110.817 67.4645 111.149 65.085C111.481 62.7054 111.896 60.4504 112.394 58.3198C112.92 56.1893 113.528 54.3216 114.22 52.7168C114.94 51.112 115.756 49.8392 116.669 48.8984C117.582 47.9577 118.62 47.4873 119.782 47.4873C120.695 47.4873 121.511 47.7087 122.23 48.1514C122.978 48.5664 123.6 49.2581 124.098 50.2266C124.596 51.195 124.984 52.4539 125.26 54.0034C125.537 55.5529 125.675 57.4482 125.675 59.6895C125.675 62.4564 125.385 65.3201 124.804 68.2808C124.223 71.2137 123.434 74.1743 122.438 77.1626C121.442 80.1509 120.266 83.1392 118.91 86.1274C117.554 89.0881 116.102 91.9795 114.552 94.8018C115.244 98.3158 116.171 101.083 117.333 103.103C118.495 105.095 119.892 106.091 121.525 106.091C122.632 106.091 123.697 105.662 124.721 104.804C125.744 103.919 126.685 102.881 127.543 101.691C128.401 100.502 129.148 99.298 129.784 98.0806C130.448 96.8354 130.96 95.8394 131.32 95.0923C131.458 94.8156 131.652 94.6081 131.901 94.4697C132.15 94.3037 132.427 94.2207 132.731 94.2207C133.201 94.2207 133.575 94.3867 133.852 94.7188C134.156 95.0508 134.308 95.4243 134.308 95.8394C134.308 96.0054 134.253 96.2267 134.142 96.5034ZM113.349 79.8188C113.349 81.5897 113.39 83.2913 113.473 84.9238C113.556 86.5563 113.667 88.1196 113.805 89.6138C114.967 87.3726 116.074 84.993 117.125 82.4751C118.177 79.9295 119.104 77.3701 119.906 74.7969C120.709 72.196 121.345 69.6227 121.815 67.0771C122.313 64.5039 122.562 62.0552 122.562 59.731C122.562 56.466 122.3 54.1279 121.774 52.7168C121.248 51.3057 120.543 50.6001 119.657 50.6001C119.076 50.6001 118.509 51.0013 117.956 51.8037C117.43 52.6061 116.932 53.6991 116.461 55.0825C115.991 56.466 115.562 58.0985 115.175 59.98C114.787 61.8615 114.455 63.8813 114.179 66.0396C113.93 68.1978 113.722 70.4528 113.556 72.8047C113.418 75.1566 113.349 77.4946 113.349 79.8188ZM150.495 103.435C149.803 103.435 149.194 103.379 148.668 103.269C148.253 104.099 147.755 104.873 147.174 105.593C146.593 106.285 145.915 106.893 145.141 107.419C144.394 107.945 143.55 108.36 142.609 108.664C141.668 108.968 140.644 109.121 139.538 109.121C138.237 109.121 137.047 108.885 135.968 108.415C134.889 107.972 133.948 107.35 133.146 106.547C132.344 105.717 131.721 104.735 131.278 103.601C130.836 102.438 130.614 101.166 130.614 99.7822C130.614 98.0114 130.932 96.4757 131.569 95.1753C132.205 93.8472 132.938 92.7542 133.769 91.8965C134.599 91.0111 135.429 90.3608 136.259 89.9458C137.089 89.5031 137.711 89.2817 138.126 89.2817C138.597 89.2817 138.943 89.4062 139.164 89.6553C139.413 89.9043 139.538 90.2363 139.538 90.6514C139.538 91.1217 139.385 91.4814 139.081 91.7305C138.804 91.9518 138.445 92.1732 138.002 92.3945C137.559 92.6159 137.089 92.9341 136.591 93.3491C136.093 93.7365 135.622 94.2345 135.18 94.8433C134.765 95.452 134.419 96.1714 134.142 97.0015C133.865 97.8315 133.727 98.7585 133.727 99.7822C133.727 100.695 133.865 101.553 134.142 102.355C134.419 103.13 134.82 103.808 135.346 104.389C135.871 104.943 136.494 105.385 137.213 105.717C137.933 106.022 138.735 106.174 139.621 106.174C141.198 106.174 142.498 105.814 143.522 105.095C144.573 104.348 145.376 103.407 145.929 102.272C144.297 101.415 142.955 100.197 141.903 98.6201C140.852 97.043 140.326 95.2721 140.326 93.3076C140.326 91.7305 140.7 90.4438 141.447 89.4478C142.222 88.4517 143.231 87.9536 144.477 87.9536C145.224 87.9536 145.929 88.1335 146.593 88.4932C147.257 88.8529 147.838 89.4201 148.336 90.1948C148.862 90.9696 149.277 91.9657 149.582 93.1831C149.886 94.4006 150.038 95.8532 150.038 97.541C150.038 98.4264 149.927 99.3534 149.706 100.322C149.872 100.349 150.038 100.363 150.204 100.363C150.37 100.363 150.55 100.363 150.744 100.363C151.684 100.363 152.528 100.253 153.275 100.031C154.022 99.8099 154.7 99.4779 155.309 99.0352C155.918 98.5924 156.457 98.0252 156.928 97.3335C157.426 96.6418 157.896 95.8394 158.339 94.9263C158.422 94.7603 158.602 94.6081 158.878 94.4697C159.155 94.3037 159.432 94.2207 159.708 94.2207C160.068 94.2207 160.4 94.3729 160.705 94.6772C161.037 94.9539 161.203 95.3275 161.203 95.7979C161.203 96.0192 161.147 96.2682 161.037 96.5449C160.926 96.7939 160.815 97.0291 160.705 97.2505C160.234 98.0806 159.681 98.883 159.044 99.6577C158.436 100.405 157.702 101.069 156.845 101.65C156.015 102.203 155.074 102.646 154.022 102.978C152.971 103.31 151.795 103.462 150.495 103.435ZM143.397 92.9756C143.397 93.5013 143.467 94.0547 143.605 94.6357C143.743 95.2168 143.951 95.7979 144.228 96.3789C144.532 96.9323 144.892 97.4718 145.307 97.9976C145.749 98.4956 146.261 98.9245 146.842 99.2842C146.925 98.7031 146.967 98.1359 146.967 97.5825C146.967 96.8354 146.911 96.0745 146.801 95.2998C146.69 94.5251 146.524 93.8195 146.303 93.1831C146.109 92.519 145.86 91.9933 145.556 91.606C145.251 91.1909 144.892 90.9834 144.477 90.9834C144.311 90.9834 144.089 91.1079 143.812 91.3569C143.536 91.606 143.397 92.1455 143.397 92.9756ZM173.28 112.067C178.482 105.288 182.093 99.6577 184.113 95.1753C184.251 94.8709 184.431 94.6496 184.652 94.5112C184.901 94.3452 185.178 94.2622 185.482 94.2622C185.953 94.2622 186.34 94.4282 186.645 94.7603C186.949 95.0646 187.101 95.4243 187.101 95.8394C187.101 96.033 187.06 96.2267 186.977 96.4204C185.759 99.1873 184.03 102.272 181.789 105.676C179.547 109.079 176.711 112.925 173.28 117.214C173.28 118.957 173.294 120.7 173.322 122.443C173.349 124.187 173.363 126.096 173.363 128.171C173.363 130.246 173.308 132.294 173.197 134.313C173.114 136.361 172.948 138.298 172.699 140.124C172.45 141.978 172.104 143.68 171.662 145.229C171.247 146.806 170.693 148.162 170.001 149.296C169.337 150.458 168.521 151.358 167.553 151.994C166.612 152.658 165.491 152.99 164.191 152.99C162.337 152.99 160.912 152.285 159.916 150.874C158.92 149.462 158.422 147.456 158.422 144.855C158.422 143.472 158.546 141.964 158.795 140.332C159.072 138.727 159.459 137.067 159.958 135.351C160.456 133.636 161.05 131.892 161.742 130.122C162.462 128.378 163.25 126.677 164.108 125.017C164.966 123.356 165.893 121.765 166.889 120.244C167.912 118.722 168.992 117.338 170.126 116.093C170.154 114.156 170.167 112.233 170.167 110.324C170.195 108.415 170.237 106.658 170.292 105.053C169.462 106.105 168.466 106.935 167.304 107.543C166.169 108.152 165.035 108.457 163.9 108.457C162.932 108.457 162.047 108.277 161.244 107.917C160.469 107.53 159.805 107.004 159.252 106.34C158.699 105.648 158.27 104.846 157.965 103.933C157.661 103.02 157.509 102.023 157.509 100.944C157.509 98.7861 157.868 96.8908 158.588 95.2583C159.335 93.5981 160.276 92.2147 161.41 91.1079C162.545 90.0011 163.79 89.1711 165.146 88.6177C166.529 88.0643 167.857 87.7876 169.13 87.7876C169.988 87.7876 170.776 87.8983 171.496 88.1196C172.215 88.341 172.824 88.59 173.322 88.8667C173.847 89.1434 174.249 89.4062 174.525 89.6553C174.802 89.9043 174.954 90.0426 174.982 90.0703C175.286 90.4023 175.438 90.7759 175.438 91.1909C175.438 91.606 175.286 91.9795 174.982 92.3115C174.678 92.6159 174.318 92.7681 173.903 92.7681C173.515 92.7681 173.142 92.6159 172.782 92.3115C172.672 92.2285 172.519 92.1178 172.326 91.9795C172.16 91.8135 171.924 91.6475 171.62 91.4814C171.343 91.3154 170.998 91.1771 170.583 91.0664C170.195 90.9557 169.725 90.9004 169.171 90.9004C168.341 90.9004 167.428 91.0941 166.432 91.4814C165.436 91.8411 164.509 92.4222 163.651 93.2246C162.794 94.027 162.074 95.0646 161.493 96.3374C160.912 97.5825 160.622 99.0905 160.622 100.861C160.622 102.189 160.912 103.269 161.493 104.099C162.074 104.901 162.973 105.302 164.191 105.302C164.772 105.302 165.381 105.136 166.017 104.804C166.681 104.472 167.318 103.96 167.926 103.269C168.535 102.577 169.061 101.705 169.503 100.654C169.974 99.6024 170.306 98.3573 170.5 96.9185C170.555 96.5311 170.735 96.2129 171.039 95.9639C171.343 95.6872 171.703 95.5488 172.118 95.5488C172.589 95.5488 172.948 95.7148 173.197 96.0469C173.474 96.3789 173.612 96.7524 173.612 97.1675C173.612 97.1951 173.598 97.624 173.571 98.4541C173.543 99.2565 173.515 100.336 173.488 101.691C173.46 103.047 173.419 104.624 173.363 106.423C173.336 108.194 173.308 110.075 173.28 112.067ZM170.126 121.157C168.826 122.955 167.65 124.906 166.598 127.009C165.547 129.139 164.647 131.284 163.9 133.442C163.153 135.6 162.572 137.689 162.157 139.709C161.77 141.757 161.576 143.583 161.576 145.188C161.576 146.211 161.659 147.028 161.825 147.636C162.019 148.245 162.24 148.715 162.489 149.047C162.766 149.379 163.056 149.601 163.361 149.711C163.693 149.822 163.997 149.877 164.274 149.877C165.132 149.877 165.879 149.532 166.515 148.84C167.152 148.148 167.691 147.221 168.134 146.059C168.576 144.925 168.936 143.61 169.213 142.116C169.49 140.622 169.697 139.073 169.835 137.468C169.974 135.891 170.071 134.313 170.126 132.736C170.181 131.159 170.209 129.707 170.209 128.378C170.209 127.189 170.209 125.999 170.209 124.809C170.209 123.619 170.181 122.402 170.126 121.157Z" fill="#CDB8FF"/>
<path d="M146.544 53.1494C146.727 52.9215 146.892 52.688 147.04 52.4487C147.188 52.1981 147.262 51.9132 147.262 51.5942C147.262 51.2752 147.205 50.9961 147.091 50.7568C146.977 50.5062 146.818 50.2897 146.613 50.1074C146.168 49.7087 145.604 49.5093 144.921 49.5093C144.237 49.5093 143.696 49.7087 143.297 50.1074C142.91 50.4948 142.716 50.9733 142.716 51.543V65.4199C142.716 66.001 142.91 66.451 143.297 66.77C143.685 67.0776 144.163 67.2314 144.733 67.2314C145.303 67.2314 145.781 67.0776 146.168 66.77C146.556 66.451 146.75 66.001 146.75 65.4199V62.4805C146.75 61.9108 146.892 61.4836 147.177 61.1987C147.667 60.7088 148.122 60.4639 148.544 60.4639C148.965 60.4639 149.302 60.5151 149.552 60.6177C149.803 60.7202 150.019 60.8626 150.202 61.0449C150.6 61.4437 150.8 61.9222 150.8 62.4805V72.4438C150.8 73.8452 150.31 75.0358 149.33 76.0156C148.339 77.0068 147.154 77.5024 145.775 77.5024H143.759C143.326 77.5024 142.961 77.3543 142.665 77.0581C142.369 76.7619 142.221 76.3973 142.221 75.9644C142.221 75.5428 142.369 75.1782 142.665 74.8706C142.961 74.563 143.326 74.4092 143.759 74.4092H144.733C145.291 74.4092 145.718 74.2725 146.015 73.999C146.505 73.5205 146.75 72.9907 146.75 72.4097V69.2993C146.75 69.0828 146.687 68.9404 146.562 68.8721C146.448 68.7923 146.334 68.7524 146.22 68.7524C146.106 68.7524 146.003 68.8037 145.912 68.9062L145.622 69.1797C144.847 69.9544 143.958 70.3418 142.956 70.3418C141.736 70.3418 140.717 69.8405 139.896 68.8379C139.076 67.8581 138.666 66.6732 138.666 65.2832V51.4575C138.666 49.9194 139.19 48.7061 140.238 47.8174C141.332 46.8945 142.83 46.4331 144.733 46.4331C146.693 46.4331 148.225 46.8945 149.33 47.8174C150.424 48.7174 150.971 49.9365 150.971 51.4746C150.971 53.8786 150.355 55.5021 149.125 56.3452C148.749 56.6073 148.367 56.7383 147.98 56.7383C147.604 56.7383 147.291 56.687 147.04 56.5845C146.801 56.4819 146.59 56.3395 146.408 56.1572C146.02 55.7926 145.827 55.3768 145.827 54.9097C145.827 54.4425 145.901 54.0894 146.049 53.8501C146.197 53.5994 146.362 53.3659 146.544 53.1494ZM157.636 53.3374C157.636 52.6538 157.955 52.1753 158.593 51.9019C158.775 51.8221 158.974 51.7822 159.191 51.7822H163.224C164.614 51.7822 165.805 52.2778 166.796 53.269C167.787 54.2603 168.283 55.4508 168.283 56.8408V68.3423C168.283 69.2082 167.873 69.8177 167.052 70.1709C166.802 70.2848 166.528 70.3418 166.232 70.3418C165.936 70.3418 165.679 70.2905 165.463 70.188C165.258 70.0968 165.081 69.9886 164.933 69.8633C164.808 69.7493 164.682 69.5898 164.557 69.3848C164.432 69.1683 164.335 69.0088 164.267 68.9062C164.198 68.8037 164.09 68.7524 163.942 68.7524C163.794 68.7524 163.674 68.8037 163.583 68.9062L163.31 69.1968C162.546 69.9601 161.652 70.3418 160.626 70.3418C159.407 70.3418 158.354 69.8405 157.465 68.8379C156.576 67.8467 156.132 66.6618 156.132 65.2832V62.9248C156.132 61.5348 156.627 60.3442 157.619 59.353C158.598 58.3732 159.789 57.8833 161.19 57.8833H164.232V56.8921C164.232 56.3224 164.09 55.8952 163.805 55.6104C163.304 55.109 162.774 54.8584 162.216 54.8584H159.191C158.769 54.8584 158.445 54.7502 158.217 54.5337C157.829 54.1691 157.636 53.7703 157.636 53.3374ZM160.182 65.249C160.182 65.8301 160.325 66.2573 160.609 66.5308C161.111 67.0093 161.572 67.2485 161.994 67.2485C162.415 67.2485 162.746 67.2087 162.985 67.1289C163.236 67.0492 163.452 66.9352 163.634 66.7871C164.033 66.4681 164.232 66.0465 164.232 65.5225V60.9424H162.216C161.635 60.9424 161.202 61.0848 160.917 61.3696C160.427 61.8595 160.182 62.3893 160.182 62.959V65.249ZM182.433 66.9067C182.866 66.9067 183.225 67.0605 183.51 67.3682C183.795 67.6758 183.937 68.0461 183.937 68.479C183.937 68.9006 183.795 69.2594 183.51 69.5557C183.225 69.8519 182.866 70 182.433 70H180.382C178.992 70 177.802 69.5044 176.811 68.5132C175.831 67.5334 175.341 66.3428 175.341 64.9414V54.79H173.324C172.675 54.79 172.213 54.4824 171.94 53.8672C171.86 53.6849 171.82 53.4912 171.82 53.2861C171.82 52.6367 172.128 52.1753 172.743 51.9019C172.925 51.8221 173.119 51.7822 173.324 51.7822H175.341V48.2275C175.341 47.3275 175.751 46.7008 176.571 46.3477C176.811 46.2337 177.073 46.1768 177.357 46.1768C177.916 46.1768 178.337 46.3249 178.622 46.6211C179.123 47.111 179.374 47.6465 179.374 48.2275V51.7822H182.467C182.866 51.7822 183.174 51.8905 183.39 52.1069C183.755 52.4715 183.937 52.8646 183.937 53.2861C183.937 53.6963 183.795 54.0495 183.51 54.3457C183.225 54.6419 182.877 54.79 182.467 54.79H179.374V64.9072C179.374 65.4769 179.522 65.8984 179.818 66.1719C180.32 66.6618 180.844 66.9067 181.391 66.9067H182.433ZM190.397 70C189.975 70 189.611 69.8519 189.303 69.5557C188.996 69.2594 188.842 68.9518 188.842 68.6328C188.842 68.3138 188.882 68.0632 188.961 67.8809C189.053 67.6872 189.172 67.5163 189.32 67.3682C189.628 67.0605 189.987 66.9067 190.397 66.9067H194.174C194.869 66.9067 195.427 66.7131 195.849 66.3257C196.27 65.9269 196.481 65.437 196.481 64.856C196.481 64.2749 196.321 63.8078 196.002 63.4546C195.683 63.09 195.29 62.8337 194.823 62.6855L191.747 61.8311C190.688 61.512 189.844 60.9196 189.218 60.0537C188.58 59.1764 188.261 58.2479 188.261 57.2681C188.261 56.2882 188.403 55.4793 188.688 54.8413C188.984 54.2033 189.377 53.6564 189.867 53.2007C190.881 52.255 192.134 51.7822 193.627 51.7822H197.797C198.23 51.7822 198.589 51.936 198.874 52.2437C199.158 52.5399 199.301 52.9045 199.301 53.3374C199.301 53.7703 199.158 54.1349 198.874 54.4312C198.589 54.716 198.23 54.8584 197.797 54.8584H193.952C193.371 54.8584 192.915 55.0293 192.584 55.3711C192.265 55.7129 192.106 56.1174 192.106 56.5845C192.106 57.3136 192.51 57.8605 193.319 58.2251L196.669 59.1992C198.469 59.8031 199.665 60.9424 200.258 62.6172C200.451 63.1868 200.548 63.842 200.548 64.5825C200.548 65.3231 200.395 66.0295 200.087 66.7017C199.791 67.3739 199.392 67.9549 198.891 68.4448C197.831 69.4816 196.583 70 195.148 70H190.397ZM205.658 45.7495C205.658 44.8722 206.068 44.2513 206.889 43.8867C207.139 43.7728 207.407 43.7158 207.692 43.7158C207.977 43.7158 208.239 43.7728 208.478 43.8867C208.729 43.9893 208.945 44.1317 209.127 44.314C209.526 44.7127 209.726 45.1912 209.726 45.7495V52.4829C209.726 52.6994 209.783 52.8475 209.896 52.9272C210.022 52.9956 210.136 53.0298 210.238 53.0298C210.352 53.0298 210.455 52.9842 210.546 52.8931C210.637 52.7905 210.785 52.6367 210.99 52.4316C211.662 51.7594 212.511 51.4233 213.537 51.4233C214.744 51.4233 215.764 51.9189 216.596 52.9102C217.405 53.9014 217.809 55.1034 217.809 56.5161V64.9585C217.809 66.3371 217.313 67.522 216.322 68.5132C215.331 69.5044 214.146 70 212.768 70H207.709C207.139 70 206.706 69.8576 206.41 69.5728C205.909 69.0942 205.658 68.5588 205.658 67.9663V45.7495ZM213.759 56.5332C213.759 55.6673 213.349 55.0521 212.528 54.6875C212.289 54.585 211.959 54.5337 211.537 54.5337C211.116 54.5337 210.717 54.7103 210.341 55.0635C209.965 55.4167 209.76 55.861 209.726 56.3965V66.9238H211.742C212.312 66.9238 212.739 66.7814 213.024 66.4966C213.514 66.0067 213.759 65.4712 213.759 64.8901V56.5332ZM231.669 52.1924C231.965 51.9076 232.233 51.7139 232.472 51.6113C232.723 51.4974 232.985 51.4404 233.258 51.4404C233.543 51.4404 233.811 51.4917 234.062 51.5942C234.312 51.6968 234.529 51.8392 234.711 52.0215C235.11 52.4202 235.309 52.8931 235.309 53.4399V73.042C235.309 74.4434 234.813 75.634 233.822 76.6138C232.808 77.605 231.606 78.1006 230.216 78.1006H227.191C226.758 78.1006 226.388 77.9525 226.081 77.6562C225.784 77.36 225.636 76.9954 225.636 76.5625C225.636 76.1296 225.784 75.7593 226.081 75.4517C226.388 75.1554 226.758 75.0073 227.191 75.0073H229.208C229.789 75.0073 230.222 74.8649 230.507 74.5801C230.997 74.0902 231.242 73.5661 231.242 73.0078V69.2993C231.242 69.0828 231.179 68.9404 231.054 68.8721C230.94 68.7923 230.826 68.7524 230.712 68.7524C230.598 68.7524 230.495 68.8037 230.404 68.9062L230.114 69.1797C229.339 69.9544 228.445 70.3418 227.431 70.3418C226.2 70.3418 225.181 69.8405 224.372 68.8379C223.563 67.8467 223.158 66.6618 223.158 65.2832V53.4399C223.158 52.5741 223.568 51.9645 224.389 51.6113C224.628 51.4974 224.884 51.4404 225.158 51.4404C225.443 51.4404 225.71 51.4917 225.961 51.5942C226.212 51.6968 226.428 51.8392 226.61 52.0215C227.009 52.4202 227.208 52.8931 227.208 53.4399V65.2319C227.208 65.7902 227.351 66.2174 227.636 66.5137C228.114 67.015 228.564 67.2656 228.986 67.2656C229.407 67.2656 229.738 67.2257 229.977 67.146C230.228 67.0549 230.45 66.9295 230.644 66.77C231.042 66.4282 231.242 65.9839 231.242 65.437V53.4399C231.242 52.8817 231.384 52.4658 231.669 52.1924Z" fill="#FBA6AB"/>
</svg>
