<svg width="544" height="354" viewBox="0 0 272 177" fill="none" xmlns="http://www.w3.org/2000/svg">
<rect width="272" height="177" rx="8" fill="white"/>
<rect x="54" y="20" width="194" height="26" fill="#FFF065"/>
<rect x="114" y="57" width="133" height="26" fill="#FFF065"/>
<rect x="22" y="57" width="58" height="26" fill="#FFF065"/>
<rect x="166" y="94" width="81" height="26" fill="#FFF065"/>
<rect x="22" y="94" width="123" height="26" fill="#FFF065"/>
<rect x="22" y="131" width="194" height="26" fill="#FFF065"/>
<path d="M22.42 41L21.74 36.716C21.1053 35.9227 20.6067 34.9027 20.244 33.656C19.8813 32.4093 19.7 30.8567 19.7 28.998C19.7 26.9807 19.9493 25.258 20.448 23.83C20.9693 22.402 21.672 21.2233 22.556 20.294C23.44 19.3647 24.4373 18.628 25.548 18.084C26.6587 17.54 27.8147 17.166 29.016 16.962C30.24 16.7353 31.43 16.622 32.586 16.622C34.0367 16.622 35.442 16.8033 36.802 17.166C38.1847 17.5287 39.4313 18.1633 40.542 19.07C41.6527 19.9767 42.5367 21.2347 43.194 22.844C43.8513 24.4533 44.18 26.5047 44.18 28.998C44.18 30.29 44.1007 31.3893 43.942 32.296C43.806 33.18 43.5793 33.9507 43.262 34.608C42.9673 35.2427 42.582 35.8433 42.106 36.41C41.7433 36.8407 41.2787 37.3053 40.712 37.804C40.1453 38.28 39.6013 38.62 39.08 38.824L39.148 38.994L41.8 39.334L47.818 41.748L44.758 47.256C44.758 47.256 44.52 47.1427 44.044 46.916C43.568 46.712 42.9447 46.4287 42.174 46.066C41.426 45.726 40.5987 45.352 39.692 44.944C38.808 44.536 37.9353 44.128 37.074 43.72C36.2353 43.3347 35.4873 42.9833 34.83 42.666C34.1953 42.3713 33.742 42.1673 33.47 42.054C32.6767 41.6687 31.94 41.3967 31.26 41.238C30.58 41.0793 29.6847 41 28.574 41H22.42ZM29.186 34.574H32.212C33.7987 34.574 34.8753 34.0753 35.442 33.078C36.0313 32.0807 36.326 30.7207 36.326 28.998C36.326 27.23 36.0087 25.8587 35.374 24.884C34.7393 23.9093 33.6967 23.422 32.246 23.422C30.5913 23.422 29.39 23.8527 28.642 24.714C27.894 25.5527 27.52 26.9807 27.52 28.998C27.52 30.0633 27.622 30.9927 27.826 31.786C28.0527 32.5793 28.302 33.214 28.574 33.69C28.846 34.1433 29.05 34.438 29.186 34.574Z" fill="#CDB8FF"/>
<path d="M96.886 83.34C92.9193 83.34 90.0633 82.5467 88.318 80.96C86.5727 79.3507 85.7 76.778 85.7 73.242V64.402L85.734 60.968L85.7 58.928H93.316V71.542C93.316 72.5847 93.3953 73.514 93.554 74.33C93.7127 75.1233 94.0527 75.7467 94.574 76.2C95.0953 76.6533 95.8887 76.88 96.954 76.88C98.042 76.88 98.8467 76.676 99.368 76.268C99.8893 75.86 100.229 75.2593 100.388 74.466C100.547 73.6727 100.626 72.698 100.626 71.542V58.928H108.072V73.242C108.072 75.554 107.698 77.458 106.95 78.954C106.202 80.4273 105.012 81.5267 103.38 82.252C101.748 82.9773 99.5833 83.34 96.886 83.34Z" fill="#CDB8FF"/>
<path d="M151.45 121V101.82L151.1 98.32L151.45 96.22H159.185V121H151.45Z" fill="#CDB8FF"/>
<path d="M224.785 157L223.7 154.9L234.62 138.835H224.785V132.22H244.91V136.35L235.775 150.385H236.86L244.98 149.685V157H224.785Z" fill="#CDB8FF"/>
</svg>
